<svg width="100" height="100" viewBox="0 0 100 100" fill="none" xmlns="http://www.w3.org/2000/svg">
<path fill-rule="evenodd" clip-rule="evenodd" d="M49.9984 3.98669C23.9461 3.98669 2.82031 25.1078 2.82031 51.1648C2.82031 72.0101 16.3383 89.6937 35.0836 95.9328C37.4406 96.3703 38.3063 94.9094 38.3063 93.6633C38.3063 92.5383 38.2625 88.8219 38.2422 84.8797C25.1172 87.7336 22.3477 79.3133 22.3477 79.3133C20.2016 73.8601 17.1094 72.4101 17.1094 72.4101C12.8281 69.482 17.432 69.5429 17.432 69.5429C22.1688 69.875 24.6641 74.4047 24.6641 74.4047C28.8719 81.6156 35.7008 79.5312 38.393 78.3265C38.8164 75.2773 40.0391 73.1953 41.3883 72.0172C30.9094 70.8258 19.893 66.7797 19.893 48.7023C19.893 43.5515 21.7367 39.3429 24.7547 36.0383C24.2641 34.8508 22.6492 30.0523 25.2109 23.5539C25.2109 23.5539 29.1719 22.2859 38.1875 28.3898C41.9516 27.3437 45.9883 26.8179 49.9984 26.8C54.0063 26.8179 58.0453 27.3422 61.8164 28.3883C70.8211 22.2844 74.7773 23.5523 74.7773 23.5523C77.3453 30.05 75.7305 34.8492 75.2406 36.0367C78.2656 39.3414 80.0961 43.55 80.0961 48.7008C80.0961 66.8211 69.0594 70.8101 58.5539 71.9789C60.2469 73.4429 61.7547 76.3148 61.7547 80.7156C61.7547 87.0281 61.7 92.1086 61.7 93.6625C61.7 94.9179 62.55 96.389 64.9406 95.9258C83.675 89.6804 97.1773 72.0023 97.1773 51.1648C97.1766 25.1093 76.0531 3.98669 49.9984 3.98669Z" fill="#181616"/>
<path d="M20.6901 71.7234C20.5862 71.9578 20.2175 72.0281 19.8815 71.868C19.5378 71.7148 19.3464 71.3953 19.4573 71.1601C19.5589 70.918 19.9284 70.8516 20.2698 71.0133C20.6136 71.1672 20.8089 71.4898 20.6893 71.7242L20.6901 71.7234ZM22.6011 73.8555C22.3768 74.0641 21.937 73.9672 21.6386 73.6367C21.3292 73.3086 21.2714 72.8687 21.5003 72.657C21.7331 72.4492 22.1596 72.5476 22.469 72.8758C22.7768 73.2086 22.8378 73.6445 22.6018 73.8562L22.6011 73.8555ZM24.462 76.5719C24.1729 76.7734 23.6995 76.5851 23.4073 76.1656C23.1182 75.7453 23.1182 75.2414 23.4151 75.0406C23.7065 74.8391 24.1729 75.0211 24.4698 75.4367C24.7573 75.8625 24.7573 76.3672 24.462 76.5719ZM27.0097 79.1976C26.7518 79.4828 26.2003 79.4062 25.7972 79.018C25.3854 78.6375 25.2706 78.0961 25.5292 77.8117C25.7917 77.5258 26.3456 77.6055 26.7511 77.9914C27.1628 78.3711 27.287 78.9133 27.0112 79.1969L27.0097 79.1976ZM30.5253 80.7219C30.4104 81.0914 29.8807 81.2594 29.3456 81.1016C28.812 80.9398 28.4628 80.5078 28.5722 80.1344C28.6815 79.7617 29.2151 79.5875 29.7534 79.7555C30.287 79.9164 30.6362 80.3461 30.5253 80.7219ZM34.387 81.0039C34.4003 81.393 33.9471 81.7148 33.387 81.7226C32.8221 81.7359 32.3651 81.4203 32.3597 81.0375C32.3597 80.6445 32.8034 80.3266 33.3675 80.3156C33.9276 80.3055 34.3878 80.618 34.3878 81.0031L34.387 81.0039ZM37.9792 80.393C38.0464 80.7719 37.6565 81.1617 37.0995 81.2656C36.5526 81.3672 36.0448 81.1312 35.9745 80.7555C35.9073 80.3664 36.3042 79.9766 36.8511 79.8758C37.4089 79.7797 37.9089 80.0078 37.9792 80.393Z" fill="#181616"/>
</svg>
