<svg width="100" height="100" viewBox="0 0 100 100" fill="none" xmlns="http://www.w3.org/2000/svg">
<g clip-path="url(#clip0_631_301)">
<path d="M50.0039 20.0016C36.6703 20.0016 28.3398 26.6657 25.0039 39.9992C30.0023 33.3344 35.8375 30.8352 42.5023 32.5016C46.3078 33.45 49.0273 36.2094 52.0391 39.2672C56.9406 44.2414 62.6141 50 75.0039 50C88.3367 50 96.668 43.3352 100.004 29.9985C95.0039 36.6667 89.1708 39.1672 82.5047 37.5C78.7 36.5508 75.9836 33.7922 72.968 30.7344C68.0695 25.7602 62.3977 20.0016 50.0039 20.0016ZM25.0039 50C11.6711 50 3.33984 56.6649 0.00390625 70.0016C5.00339 63.3334 10.8362 60.8328 17.5023 62.5C21.3078 63.4492 24.0273 66.2078 27.0391 69.2657C31.9406 74.2399 37.6141 79.9985 50.0039 79.9985C63.3367 79.9985 71.668 73.3344 75.0039 60.0008C70.0039 66.6659 64.1708 69.1651 57.5047 67.4985C53.7 66.55 50.9836 63.7907 47.968 60.7328C43.0695 55.7586 37.3977 50 25.0039 50Z" fill="#38BDF8"/>
</g>
<defs>
<clipPath id="clip0_631_301">
<rect width="100" height="100" fill="white"/>
</clipPath>
</defs>
</svg>
